<?xml version="1.0" encoding="UTF-8"?>
<svg xmlns="http://www.w3.org/2000/svg" width="980" height="340" viewBox="0 0 980 340">
  <rect width="100%" height="100%" fill="#111217"/>
  <text x="20" y="36" fill="#fff" font-family="sans-serif" font-size="20" font-weight="bold">KYC Platform — Metrics Snapshot</text>
  <text x="20" y="54" fill="#888" font-family="sans-serif" font-size="12">Generated from /metrics (Grafana dashboard: infra/grafana/dashboards/kyc-platform.json)</text>
  <text x="780" y="36" fill="#73bf69" font-family="monospace" font-size="13">http_requests_total ≈ 9</text>
<g transform="translate(20,60)">
  <rect width="460" height="120" fill="#1f1f23" stroke="#444" rx="4"/>
  <text x="12" y="22" fill="#ddd" font-family="sans-serif" font-size="14" font-weight="bold">KYC Submissions</text>
  <text x="12" y="50" fill="#aaa" font-family="monospace" font-size="11">kyc_submissions_total{status</text>
  <rect x="130" y="36" width="320" height="76" fill="#5794f2" rx="2"/>
  <text x="456" y="50" fill="#ccc" font-family="monospace" font-size="11">3</text>
</g>
<g transform="translate(500,60)">
  <rect width="460" height="120" fill="#1f1f23" stroke="#444" rx="4"/>
  <text x="12" y="22" fill="#ddd" font-family="sans-serif" font-size="14" font-weight="bold">Risk Assessments</text>
  <text x="12" y="50" fill="#aaa" font-family="monospace" font-size="11">risk_assessments_total{band=</text>
  <rect x="130" y="36" width="320" height="76" fill="#5794f2" rx="2"/>
  <text x="456" y="50" fill="#ccc" font-family="monospace" font-size="11">3</text>
</g>
<g transform="translate(20,200)">
  <rect width="460" height="120" fill="#1f1f23" stroke="#444" rx="4"/>
  <text x="12" y="22" fill="#ddd" font-family="sans-serif" font-size="14" font-weight="bold">Verifications</text>
  <text x="12" y="50" fill="#aaa" font-family="monospace" font-size="11">pan_verifications_total{stat</text>
  <rect x="130" y="36" width="320" height="36" fill="#5794f2" rx="2"/>
  <text x="456" y="50" fill="#ccc" font-family="monospace" font-size="11">3</text>
  <text x="12" y="90" fill="#aaa" font-family="monospace" font-size="11">bank_verifications_total{sta</text>
  <rect x="130" y="76" width="320" height="36" fill="#5794f2" rx="2"/>
  <text x="456" y="90" fill="#ccc" font-family="monospace" font-size="11">3</text>
</g>
<g transform="translate(500,200)">
  <rect width="460" height="120" fill="#1f1f23" stroke="#444" rx="4"/>
  <text x="12" y="22" fill="#ddd" font-family="sans-serif" font-size="14" font-weight="bold">Customers Created</text>
  <text x="12" y="50" fill="#aaa" font-family="monospace" font-size="11">customers_created_total{stat</text>
  <rect x="130" y="36" width="320" height="76" fill="#5794f2" rx="2"/>
  <text x="456" y="50" fill="#ccc" font-family="monospace" font-size="11">3</text>
</g>
</svg>
